<svg width="30" height="25" viewBox="0 0 30 25" fill="none" xmlns="http://www.w3.org/2000/svg">
<path d="M0 7.64081H2.00607V9.29284H2.05328C2.37324 8.62619 2.92784 8.10098 3.6109 7.81774C4.3497 7.50476 5.1453 7.34809 5.94761 7.35758C6.79886 7.33751 7.64315 7.51527 8.41404 7.87685C9.09466 8.20731 9.69171 8.68745 10.1605 9.28133C10.6345 9.89054 10.9906 10.5829 11.2105 11.3227C11.4502 12.1187 11.5696 12.946 11.5646 13.7772C11.5695 14.6076 11.4543 15.4344 11.2224 16.2318C11.0131 16.9664 10.6601 17.6523 10.1841 18.2498C9.71307 18.8294 9.11568 19.2936 8.43765 19.6068C7.67032 19.9513 6.83592 20.1206 5.99501 20.1025C5.65862 20.0991 5.3231 20.0675 4.99197 20.0081C4.61662 19.9436 4.24888 19.8408 3.89452 19.7013C3.52718 19.5567 3.18157 19.3621 2.86749 19.1229C2.54084 18.8745 2.26451 18.5661 2.05328 18.2143H2.00607V24.4921H0V7.64081ZM9.44127 13.6356C9.44188 13.0734 9.36649 12.5137 9.21714 11.9717C9.07802 11.4507 8.84615 10.959 8.53265 10.5202C8.22425 10.0943 7.82006 9.74683 7.35268 9.50585C6.82943 9.24413 6.25005 9.11447 5.66515 9.1282C5.06567 9.10966 4.47174 9.24798 3.94212 9.52946C3.48142 9.78658 3.08578 10.1459 2.78556 10.5797C2.48009 11.0272 2.26006 11.5273 2.13657 12.0548C1.86516 13.1759 1.86918 14.346 2.14828 15.4652C2.27678 15.9951 2.50504 16.4957 2.82087 16.9403C3.13343 17.37 3.54141 17.7215 4.01273 17.9669C4.56161 18.2408 5.16964 18.3748 5.78278 18.357C6.38626 18.3783 6.98466 18.2399 7.51751 17.9558C7.97166 17.6977 8.35637 17.3332 8.63857 16.8936C8.93097 16.4305 9.1387 15.9191 9.25205 15.3832C9.37894 14.8094 9.44239 14.2233 9.44127 13.6356ZM25.85 19.8961H23.7251L21.2477 10.196H21.2005L18.746 19.8961H16.5737L12.656 7.69426H14.8745L17.6359 17.6776H17.6831L20.1376 7.69426H22.3325L24.8815 17.6776H24.9287L27.6664 7.69426H29.7433L25.85 19.8961Z" fill="#F7FCFC"/>
<mask id="mask0_1257_946" style="mask-type:luminance" maskUnits="userSpaceOnUse" x="12" y="2" width="12" height="3">
<path d="M12.9639 2.99136V4.73956H21.0617L23.0163 2.99136H12.9639Z" fill="white"/>
</mask>
<g mask="url(#mask0_1257_946)">
<path d="M17.7197 2.11862L7.94507 3.91324L18.2604 5.61326L28.0351 3.81864L17.7197 2.11862Z" fill="#F7FCFC"/>
</g>
<mask id="mask1_1257_946" style="mask-type:luminance" maskUnits="userSpaceOnUse" x="26" y="0" width="4" height="4">
<path d="M30 0H26.2131V3.23695H30V0Z" fill="white"/>
</mask>
<g mask="url(#mask1_1257_946)">
<mask id="mask2_1257_946" style="mask-type:luminance" maskUnits="userSpaceOnUse" x="26" y="0" width="4" height="4">
<path d="M30 0H26.2131V3.23695H30V0Z" fill="white"/>
</mask>
<g mask="url(#mask2_1257_946)">
<path d="M26.8064 1.98677V0.478618H26.2678V0.171539H27.7104V0.478618H27.173V1.98677H26.8064Z" fill="#F7FCFC"/>
<path d="M27.9431 1.98677V0.171539H28.4917L28.821 1.40976L29.1467 0.171539H29.6965V1.98677H29.3559V0.557865L28.9956 1.98677H28.6427L28.2836 0.557865V1.98677H27.9431Z" fill="#F7FCFC"/>
</g>
</g>
</svg>
